<svg xmlns="http://www.w3.org/2000/svg" width="500" height="360" viewBox="0 0 500 360" fill="none">
<defs>
 <radialGradient id="glow"><stop stop-color="#ffc974" stop-opacity=".5"/><stop offset="1" stop-color="#ffc974" stop-opacity="0"/></radialGradient>
 <linearGradient id="silk" x1="0" y1="0" x2="1" y2="1"><stop stop-color="#ffdda0"/><stop offset=".5" stop-color="#f6ae72"/><stop offset="1" stop-color="#dc796f"/></linearGradient>
 <g id="flower"><g fill="#ec9eb8"><ellipse cy="-10" rx="7" ry="11"/><ellipse cy="-10" rx="7" ry="11" transform="rotate(72)"/><ellipse cy="-10" rx="7" ry="11" transform="rotate(144)"/><ellipse cy="-10" rx="7" ry="11" transform="rotate(216)"/><ellipse cy="-10" rx="7" ry="11" transform="rotate(288)"/></g><circle r="4" fill="#ffe0a0"/></g>
 <g id="lantern"><ellipse rx="39" ry="48" fill="url(#silk)" stroke="#c58f54" stroke-width="2"/><path d="M-20-40Q-35 0-20 40M20-40Q35 0 20 40M0-46V46" stroke="#a35c51" stroke-opacity=".3" stroke-width="2"/><path d="M-21-45H21M-21 45H21" stroke="#95653e" stroke-width="5" stroke-linecap="round"/><path d="M0 48V68m-6 0v15m6-15v19m6-19v15" stroke="#d6a456" stroke-width="3"/></g>
</defs>
<circle cx="396" cy="102" r="120" fill="url(#glow)"/>
<path d="M500 20Q439 6 371 31T258 39M440 19L464 63M393 28L352 5M346 34L323 65" stroke="#a97577" stroke-width="4" stroke-linecap="round"/>
<path d="M403 24V63M477 64V114" stroke="#c99c62" stroke-width="2"/>
<use href="#lantern" transform="translate(403 109) scale(.72)"/>
<use href="#lantern" transform="translate(477 146) scale(.53)"/>
<use href="#flower" transform="translate(449 20) scale(.8)"/><use href="#flower" transform="translate(465 62) scale(.65)"/><use href="#flower" transform="translate(363 28) scale(.9)"/><use href="#flower" transform="translate(324 65) scale(.62)"/><use href="#flower" transform="translate(283 39) scale(.6)"/>
<g fill="#e9a1b8" opacity=".65"><ellipse cx="350" cy="190" rx="4" ry="8" transform="rotate(35 350 190)"/><ellipse cx="452" cy="266" rx="4" ry="8" transform="rotate(-40 452 266)"/><ellipse cx="285" cy="292" rx="3" ry="6" transform="rotate(60 285 292)"/></g>
<path d="M260 338Q322 312 376 333T500 315" stroke="#d6a456" stroke-opacity=".35"/>
</svg>
